<svg width="221" height="170" viewBox="0 0 221 170" fill="none" xmlns="http://www.w3.org/2000/svg">
<g filter="url(#filter0_d)">
<path d="M26.0768 118.066C54.9893 98.8964 65.1513 91.1135 65.8126 90.514L65.0662 117.295L111.578 85.7176L111.794 96.644L111.926 103.306L179.118 64.0686" stroke="#3F7B70" stroke-width="5"/>
</g>
<g clip-path="url(#clip0)">
<path d="M138.233 81.8849C135.377 80.0538 133.718 76.7919 133.902 73.372C133.94 72.6699 133.948 71.9556 133.926 71.2492C133.729 64.9987 131.154 59.1111 126.677 54.6701C122.199 50.2301 116.29 47.7043 110.038 47.5582C103.38 47.399 97.1003 49.8752 92.3456 54.5203C87.5891 59.1669 84.9696 65.3871 84.9696 72.0357C84.9696 72.4866 84.9819 72.9432 85.0068 73.3926C85.1933 76.7976 83.5335 80.0518 80.6754 81.8847C73.282 86.6258 68.9732 95.0246 69.4306 103.804C69.7458 109.857 72.3083 115.561 76.6459 119.865C80.9824 124.169 86.7059 126.688 92.7617 126.959C93.1298 126.976 93.4974 126.984 93.8649 126.984C97.7898 126.984 101.662 126.047 105.127 124.251C107.837 122.846 111.072 122.846 113.781 124.251C117.571 126.216 121.848 127.154 126.147 126.96C132.203 126.688 137.926 124.169 142.263 119.866C146.6 115.562 149.163 109.857 149.478 103.804C149.935 95.0251 145.626 86.626 138.233 81.8849ZM142.047 103.417C141.597 112.063 134.466 119.139 125.814 119.526C122.815 119.662 119.839 119.01 117.206 117.645C112.352 115.129 106.556 115.129 101.702 117.645C99.0693 119.01 96.0938 119.663 93.0941 119.526C84.4415 119.139 77.311 112.063 76.8606 103.417C76.5422 97.3009 79.5429 91.4502 84.6918 88.1486C89.8014 84.8715 92.7687 79.0618 92.4358 72.9856C92.4185 72.6711 92.4098 72.3517 92.4098 72.0362C92.4098 67.4082 94.2335 63.0778 97.5447 59.8432C100.855 56.6098 105.235 54.8901 109.864 54.9972C118.902 55.2083 126.205 62.4499 126.489 71.4836C126.505 71.9794 126.499 72.4801 126.473 72.972C126.145 79.0598 129.112 84.875 134.216 88.1486C139.365 91.4502 142.365 97.3007 142.047 103.417Z" fill="#F0943D"/>
<path d="M78.6391 48.6234C78.6391 46.7151 78.0699 43.1965 73.1475 34.7114C70.6086 30.3346 68.1066 26.7044 68.0012 26.5519C67.3067 25.5462 66.1624 24.946 64.9402 24.946C63.7179 24.946 62.5738 25.5462 61.8791 26.5519C61.774 26.7042 59.272 30.3344 56.7328 34.7114C51.8107 43.1965 51.2412 46.7149 51.2412 48.6234C51.2412 56.1767 57.3866 62.3218 64.9399 62.3218C72.4933 62.3218 78.6391 56.1767 78.6391 48.6234ZM64.9404 54.8813C61.4895 54.8813 58.6822 52.074 58.6822 48.6234C58.6822 46.6164 61.558 40.9527 64.9412 35.474C68.3239 40.95 71.1986 46.613 71.1986 48.6234C71.1986 52.074 68.3913 54.8813 64.9404 54.8813Z" fill="#F0943D"/>
<path d="M162.176 34.7114C159.637 30.3344 157.135 26.7042 157.029 26.5519C156.335 25.5462 155.191 24.946 153.968 24.946C152.746 24.946 151.602 25.5462 150.907 26.5519C150.802 26.7044 148.3 30.3346 145.761 34.7114C140.839 43.1965 140.27 46.7149 140.27 48.6234C140.27 56.1767 146.415 62.3218 153.968 62.3218C161.522 62.3218 167.667 56.1767 167.667 48.6234C167.667 46.7149 167.098 43.1965 162.176 34.7114ZM153.968 54.8813C150.518 54.8813 147.71 52.074 147.71 48.6234C147.71 46.6167 150.586 40.9535 153.968 35.4753C157.351 40.9537 160.227 46.6167 160.227 48.6234C160.227 52.074 157.419 54.8813 153.968 54.8813Z" fill="#F0943D"/>
<path d="M92.1863 37.3759C99.7399 37.3759 105.885 31.2308 105.885 23.6772C105.885 21.7689 105.316 18.2506 100.393 9.76541C97.8544 5.38866 95.3524 1.75844 95.247 1.60591C94.5528 0.6002 93.4085 0 92.1863 0C90.964 0 89.8197 0.6002 89.1252 1.60591C89.0198 1.75844 86.5181 5.38866 83.9789 9.76541C79.0568 18.2506 78.4873 21.7687 78.4873 23.6772C78.4876 31.2308 84.6327 37.3759 92.1863 37.3759ZM98.4445 23.6772C98.4445 27.1281 95.6372 29.9354 92.1863 29.9354C88.7354 29.9354 85.9281 27.1281 85.9281 23.6772C85.9281 21.6702 88.8038 16.0067 92.187 10.5281C95.5695 16.004 98.4445 21.6667 98.4445 23.6772Z" fill="#F0943D"/>
<path d="M126.722 37.3759C134.276 37.3759 140.421 31.2308 140.421 23.6772C140.421 21.7689 139.852 18.2506 134.93 9.76541C132.391 5.38866 129.889 1.75844 129.783 1.60591C129.089 0.6002 127.945 0 126.722 0C125.5 0 124.356 0.6002 123.661 1.60591C123.556 1.75844 121.054 5.38866 118.515 9.76541C113.593 18.2506 113.023 21.7687 113.023 23.6772C113.024 31.2308 119.169 37.3759 126.722 37.3759ZM132.981 23.6772C132.981 27.1281 130.173 29.9354 126.722 29.9354C123.271 29.9354 120.464 27.1281 120.464 23.6772C120.464 21.6702 123.34 16.0067 126.723 10.5281C130.106 16.004 132.981 21.6667 132.981 23.6772Z" fill="#F0943D"/>
</g>
<path d="M60.7985 150.528C60.7985 149.424 60.9585 148.456 61.2785 147.624C61.6145 146.792 62.0545 146.104 62.5985 145.56C63.1425 145 63.7665 144.584 64.4705 144.312C65.1745 144.024 65.8945 143.88 66.6305 143.88C68.3585 143.88 69.7025 144.416 70.6625 145.488C71.6385 146.56 72.1265 148.16 72.1265 150.288C72.1265 150.448 72.1185 150.632 72.1025 150.84C72.1025 151.032 72.0945 151.208 72.0785 151.368H63.7985C63.8785 152.376 64.2305 153.16 64.8545 153.72C65.4945 154.264 66.4145 154.536 67.6145 154.536C68.3185 154.536 68.9585 154.472 69.5345 154.344C70.1265 154.216 70.5905 154.08 70.9265 153.936L71.3105 156.312C71.1505 156.392 70.9265 156.48 70.6385 156.576C70.3665 156.656 70.0465 156.728 69.6785 156.792C69.3265 156.872 68.9425 156.936 68.5265 156.984C68.1105 157.032 67.6865 157.056 67.2545 157.056C66.1505 157.056 65.1905 156.896 64.3745 156.576C63.5585 156.24 62.8865 155.784 62.3585 155.208C61.8305 154.616 61.4385 153.928 61.1825 153.144C60.9265 152.344 60.7985 151.472 60.7985 150.528ZM69.2225 149.232C69.2225 148.832 69.1665 148.456 69.0545 148.104C68.9425 147.736 68.7745 147.424 68.5505 147.168C68.3425 146.896 68.0785 146.688 67.7585 146.544C67.4545 146.384 67.0865 146.304 66.6545 146.304C66.2065 146.304 65.8145 146.392 65.4785 146.568C65.1425 146.728 64.8545 146.944 64.6145 147.216C64.3905 147.488 64.2145 147.8 64.0865 148.152C63.9585 148.504 63.8705 148.864 63.8225 149.232H69.2225ZM79.6215 154.704C80.5175 154.704 81.1975 154.656 81.6615 154.56V151.344C81.5015 151.296 81.2695 151.248 80.9655 151.2C80.6615 151.152 80.3255 151.128 79.9575 151.128C79.6375 151.128 79.3095 151.152 78.9735 151.2C78.6535 151.248 78.3575 151.336 78.0855 151.464C77.8295 151.592 77.6215 151.776 77.4615 152.016C77.3015 152.24 77.2215 152.528 77.2215 152.88C77.2215 153.568 77.4375 154.048 77.8695 154.32C78.3015 154.576 78.8855 154.704 79.6215 154.704ZM79.3815 143.88C80.3415 143.88 81.1495 144 81.8055 144.24C82.4615 144.48 82.9815 144.816 83.3655 145.248C83.7655 145.68 84.0455 146.208 84.2055 146.832C84.3815 147.44 84.4695 148.112 84.4695 148.848V156.456C84.0215 156.552 83.3415 156.664 82.4295 156.792C81.5335 156.936 80.5175 157.008 79.3815 157.008C78.6295 157.008 77.9415 156.936 77.3175 156.792C76.6935 156.648 76.1575 156.416 75.7095 156.096C75.2775 155.776 74.9335 155.36 74.6775 154.848C74.4375 154.336 74.3175 153.704 74.3175 152.952C74.3175 152.232 74.4535 151.624 74.7255 151.128C75.0135 150.632 75.3975 150.232 75.8775 149.928C76.3575 149.608 76.9095 149.384 77.5335 149.256C78.1735 149.112 78.8375 149.04 79.5255 149.04C79.8455 149.04 80.1815 149.064 80.5335 149.112C80.8855 149.144 81.2615 149.208 81.6615 149.304V148.824C81.6615 148.488 81.6215 148.168 81.5415 147.864C81.4615 147.56 81.3175 147.296 81.1095 147.072C80.9175 146.832 80.6535 146.648 80.3175 146.52C79.9975 146.392 79.5895 146.328 79.0935 146.328C78.4215 146.328 77.8055 146.376 77.2455 146.472C76.6855 146.568 76.2295 146.68 75.8775 146.808L75.5175 144.456C75.8855 144.328 76.4215 144.2 77.1255 144.072C77.8295 143.944 78.5815 143.88 79.3815 143.88ZM95.1778 146.808C94.9378 146.728 94.6018 146.648 94.1698 146.568C93.7538 146.472 93.2658 146.424 92.7058 146.424C92.3858 146.424 92.0418 146.456 91.6738 146.52C91.3218 146.584 91.0738 146.64 90.9298 146.688V156.744H88.0258V144.792C88.5858 144.584 89.2818 144.392 90.1138 144.216C90.9618 144.024 91.8978 143.928 92.9218 143.928C93.1138 143.928 93.3378 143.944 93.5938 143.976C93.8498 143.992 94.1058 144.024 94.3618 144.072C94.6178 144.104 94.8658 144.152 95.1058 144.216C95.3458 144.264 95.5378 144.312 95.6818 144.36L95.1778 146.808ZM125.862 150.456C125.862 151.448 125.718 152.352 125.43 153.168C125.142 153.984 124.734 154.68 124.206 155.256C123.678 155.832 123.038 156.28 122.286 156.6C121.55 156.92 120.734 157.08 119.838 157.08C118.942 157.08 118.126 156.92 117.39 156.6C116.654 156.28 116.022 155.832 115.494 155.256C114.966 154.68 114.55 153.984 114.246 153.168C113.958 152.352 113.814 151.448 113.814 150.456C113.814 149.464 113.958 148.568 114.246 147.768C114.55 146.952 114.966 146.256 115.494 145.68C116.038 145.104 116.678 144.664 117.414 144.36C118.15 144.04 118.958 143.88 119.838 143.88C120.718 143.88 121.526 144.04 122.262 144.36C123.014 144.664 123.654 145.104 124.182 145.68C124.71 146.256 125.118 146.952 125.406 147.768C125.71 148.568 125.862 149.464 125.862 150.456ZM122.886 150.456C122.886 149.208 122.614 148.224 122.07 147.504C121.542 146.768 120.798 146.4 119.838 146.4C118.878 146.4 118.126 146.768 117.582 147.504C117.054 148.224 116.79 149.208 116.79 150.456C116.79 151.72 117.054 152.72 117.582 153.456C118.126 154.192 118.878 154.56 119.838 154.56C120.798 154.56 121.542 154.192 122.07 153.456C122.614 152.72 122.886 151.72 122.886 150.456ZM139.15 156.36C138.59 156.504 137.862 156.648 136.966 156.792C136.07 156.952 135.086 157.032 134.014 157.032C133.006 157.032 132.158 156.888 131.47 156.6C130.798 156.312 130.254 155.912 129.838 155.4C129.438 154.888 129.15 154.28 128.974 153.576C128.798 152.856 128.71 152.072 128.71 151.224V144.192H131.614V150.768C131.614 152.112 131.806 153.072 132.19 153.648C132.59 154.224 133.278 154.512 134.254 154.512C134.606 154.512 134.974 154.496 135.358 154.464C135.758 154.432 136.054 154.392 136.246 154.344V144.192H139.15V156.36ZM142.846 144.6C143.406 144.44 144.134 144.288 145.03 144.144C145.926 144 146.918 143.928 148.006 143.928C149.03 143.928 149.886 144.072 150.574 144.36C151.262 144.632 151.806 145.024 152.206 145.536C152.622 146.032 152.91 146.64 153.07 147.36C153.246 148.064 153.334 148.84 153.334 149.688V156.744H150.43V150.144C150.43 149.472 150.382 148.904 150.286 148.44C150.206 147.96 150.062 147.576 149.854 147.288C149.662 146.984 149.39 146.768 149.038 146.64C148.702 146.496 148.286 146.424 147.79 146.424C147.422 146.424 147.038 146.448 146.638 146.496C146.238 146.544 145.942 146.584 145.75 146.616V156.744H142.846V144.6ZM156.741 140.88L159.645 140.4V144.192H164.109V146.616H159.645V151.728C159.645 152.736 159.805 153.456 160.125 153.888C160.445 154.32 160.989 154.536 161.757 154.536C162.285 154.536 162.749 154.48 163.149 154.368C163.565 154.256 163.893 154.152 164.133 154.056L164.613 156.36C164.277 156.504 163.837 156.648 163.293 156.792C162.749 156.952 162.109 157.032 161.373 157.032C160.477 157.032 159.725 156.912 159.117 156.672C158.525 156.432 158.053 156.088 157.701 155.64C157.349 155.176 157.101 154.624 156.957 153.984C156.813 153.328 156.741 152.584 156.741 151.752V140.88ZM177.164 144.192C175.868 148.96 174.364 153.28 172.652 157.152C172.332 157.872 172.004 158.488 171.668 159C171.332 159.512 170.956 159.936 170.54 160.272C170.124 160.608 169.66 160.848 169.148 160.992C168.636 161.152 168.044 161.232 167.372 161.232C166.924 161.232 166.476 161.184 166.028 161.088C165.596 160.992 165.268 160.888 165.044 160.776L165.572 158.448C166.148 158.672 166.716 158.784 167.276 158.784C168.028 158.784 168.612 158.6 169.028 158.232C169.46 157.88 169.836 157.328 170.156 156.576C169.244 154.816 168.364 152.896 167.516 150.816C166.684 148.736 165.94 146.528 165.284 144.192H168.38C168.54 144.864 168.732 145.592 168.956 146.376C169.196 147.16 169.452 147.96 169.724 148.776C169.996 149.576 170.284 150.376 170.588 151.176C170.892 151.976 171.196 152.72 171.5 153.408C172.012 151.984 172.492 150.472 172.94 148.872C173.388 147.256 173.796 145.696 174.164 144.192H177.164Z" fill="#F0943D"/>
<path d="M102.266 156.936C101.386 156.936 100.498 156.904 99.6016 156.84C98.7056 156.792 97.9216 156.68 97.2496 156.504V140.352C97.6016 140.288 97.9776 140.232 98.3776 140.184C98.7776 140.12 99.1856 140.072 99.6016 140.04C100.018 140.008 100.426 139.984 100.826 139.968C101.242 139.952 101.634 139.944 102.002 139.944C103.01 139.944 103.946 140.024 104.81 140.184C105.674 140.328 106.418 140.576 107.042 140.928C107.682 141.28 108.178 141.744 108.53 142.32C108.882 142.896 109.058 143.608 109.058 144.456C109.058 145.24 108.866 145.912 108.482 146.472C108.114 147.032 107.594 147.48 106.922 147.816C107.93 148.152 108.674 148.648 109.154 149.304C109.634 149.96 109.874 150.792 109.874 151.8C109.874 153.512 109.25 154.8 108.002 155.664C106.754 156.512 104.842 156.936 102.266 156.936ZM100.226 149.256V154.32C100.562 154.352 100.922 154.376 101.306 154.392C101.69 154.408 102.042 154.416 102.362 154.416C102.986 154.416 103.562 154.376 104.09 154.296C104.634 154.216 105.098 154.08 105.482 153.888C105.882 153.68 106.194 153.408 106.418 153.072C106.658 152.736 106.778 152.304 106.778 151.776C106.778 150.832 106.434 150.176 105.746 149.808C105.058 149.44 104.106 149.256 102.89 149.256H100.226ZM100.226 146.88H102.362C103.514 146.88 104.418 146.72 105.074 146.4C105.73 146.064 106.058 145.472 106.058 144.624C106.058 143.824 105.714 143.256 105.026 142.92C104.354 142.584 103.474 142.416 102.386 142.416C101.922 142.416 101.506 142.424 101.138 142.44C100.786 142.456 100.482 142.48 100.226 142.512V146.88Z" fill="#3F7B70"/>
<path d="M50.1269 157.192C49.2469 157.192 48.3589 157.16 47.4629 157.096C46.5669 157.048 45.7829 156.936 45.1109 156.76V140.608C45.4629 140.544 45.8389 140.488 46.2389 140.44C46.6389 140.376 47.0469 140.328 47.4629 140.296C47.8789 140.264 48.2869 140.24 48.6869 140.224C49.1029 140.208 49.4949 140.2 49.8629 140.2C50.8709 140.2 51.8069 140.28 52.6709 140.44C53.5349 140.584 54.2789 140.832 54.9029 141.184C55.5429 141.536 56.0389 142 56.3909 142.576C56.7429 143.152 56.9189 143.864 56.9189 144.712C56.9189 145.496 56.7269 146.168 56.3429 146.728C55.9749 147.288 55.4549 147.736 54.7829 148.072C55.7909 148.408 56.5349 148.904 57.0149 149.56C57.4949 150.216 57.7349 151.048 57.7349 152.056C57.7349 153.768 57.1109 155.056 55.8629 155.92C54.6149 156.768 52.7029 157.192 50.1269 157.192ZM48.0869 149.512V154.576C48.4229 154.608 48.7829 154.632 49.1669 154.648C49.5509 154.664 49.9029 154.672 50.2229 154.672C50.8469 154.672 51.4229 154.632 51.9509 154.552C52.4949 154.472 52.9589 154.336 53.3429 154.144C53.7429 153.936 54.0549 153.664 54.2789 153.328C54.5189 152.992 54.6389 152.56 54.6389 152.032C54.6389 151.088 54.2949 150.432 53.6069 150.064C52.9189 149.696 51.9669 149.512 50.7509 149.512H48.0869ZM48.0869 147.136H50.2229C51.3749 147.136 52.2789 146.976 52.9349 146.656C53.5909 146.32 53.9189 145.728 53.9189 144.88C53.9189 144.08 53.5749 143.512 52.8869 143.176C52.2149 142.84 51.3349 142.672 50.2469 142.672C49.7829 142.672 49.3669 142.68 48.9989 142.696C48.6469 142.712 48.3429 142.736 48.0869 142.768V147.136Z" fill="#3F7B70"/>
<defs>
<filter id="filter0_d" x="19.6875" y="61.8616" width="165.748" height="68.9871" filterUnits="userSpaceOnUse" color-interpolation-filters="sRGB">
<feFlood flood-opacity="0" result="BackgroundImageFix"/>
<feColorMatrix in="SourceAlpha" type="matrix" values="0 0 0 0 0 0 0 0 0 0 0 0 0 0 0 0 0 0 127 0" result="hardAlpha"/>
<feOffset dy="4"/>
<feGaussianBlur stdDeviation="2"/>
<feComposite in2="hardAlpha" operator="out"/>
<feColorMatrix type="matrix" values="0 0 0 0 0 0 0 0 0 0 0 0 0 0 0 0 0 0 0.25 0"/>
<feBlend mode="normal" in2="BackgroundImageFix" result="effect1_dropShadow"/>
<feBlend mode="normal" in="SourceGraphic" in2="effect1_dropShadow" result="shape"/>
</filter>
<clipPath id="clip0">
<rect width="126.985" height="126.985" fill="white" transform="translate(45.9619)"/>
</clipPath>
</defs>
</svg>
