<svg width="475" height="366" viewBox="0 0 475 366" fill="none" xmlns="http://www.w3.org/2000/svg">
<g filter="url(#filter0_d)">
<path d="M65.0799 254.066C127.297 212.815 149.165 196.067 150.588 194.777L148.981 252.408L249.071 184.456L249.535 207.968L249.819 222.305L394.409 137.869" stroke="#3F7B70" stroke-width="5"/>
</g>
<g clip-path="url(#clip0)">
<path d="M306.43 176.208C300.286 172.268 296.715 165.249 297.112 157.889C297.193 156.378 297.21 154.841 297.162 153.321C296.739 139.871 291.199 127.201 281.563 117.645C271.927 108.09 259.212 102.655 245.758 102.341C231.431 101.998 217.918 107.326 207.686 117.322C197.45 127.321 191.813 140.707 191.813 155.014C191.813 155.984 191.84 156.967 191.893 157.934C192.295 165.261 188.723 172.264 182.573 176.208C166.663 186.41 157.391 204.484 158.375 223.376C159.053 236.402 164.568 248.676 173.902 257.939C183.233 267.2 195.55 272.621 208.581 273.204C209.373 273.24 210.164 273.258 210.955 273.258C219.401 273.258 227.734 271.241 235.19 267.376C241.021 264.352 247.983 264.353 253.814 267.375C261.969 271.604 271.171 273.622 280.423 273.205C293.455 272.621 305.771 267.2 315.103 257.939C324.437 248.677 329.951 236.402 330.63 223.376C331.612 204.485 322.34 186.411 306.43 176.208ZM314.639 222.544C313.669 241.149 298.325 256.376 279.706 257.209C273.253 257.501 266.848 256.099 261.182 253.16C250.737 247.747 238.266 247.745 227.82 253.161C222.155 256.099 215.752 257.502 209.297 257.209C190.677 256.376 175.333 241.149 174.364 222.544C173.678 209.382 180.136 196.792 191.216 189.687C202.211 182.635 208.596 170.133 207.88 157.058C207.843 156.381 207.824 155.694 207.824 155.015C207.824 145.056 211.748 135.737 218.874 128.777C225.996 121.819 235.423 118.118 245.384 118.349C264.833 118.803 280.548 134.386 281.159 153.826C281.193 154.893 281.181 155.97 281.124 157.029C280.418 170.129 286.803 182.643 297.787 189.687C308.867 196.792 315.323 209.382 314.639 222.544Z" fill="#F0943D"/>
<path d="M178.19 104.633C178.19 100.526 176.965 92.9547 166.373 74.6955C160.909 65.2772 155.525 57.4653 155.298 57.1371C153.804 54.9729 151.341 53.6813 148.711 53.6813C146.081 53.6813 143.619 54.9729 142.124 57.1371C141.898 57.4648 136.514 65.2767 131.05 74.6955C120.458 92.9547 119.232 100.526 119.232 104.633C119.232 120.887 132.457 134.111 148.711 134.111C164.965 134.111 178.19 120.887 178.19 104.633ZM148.712 118.099C141.286 118.099 135.245 112.058 135.245 104.633C135.245 100.314 141.433 88.1263 148.713 76.3367C155.993 88.1204 162.179 100.307 162.179 104.633C162.179 112.058 156.138 118.099 148.712 118.099Z" fill="#F0943D"/>
<path d="M357.954 74.6955C352.49 65.2767 347.106 57.4648 346.879 57.1371C345.384 54.9729 342.922 53.6813 340.292 53.6813C337.662 53.6813 335.2 54.9729 333.705 57.1371C333.479 57.4653 328.095 65.2772 322.631 74.6955C312.039 92.9547 310.813 100.526 310.813 104.633C310.813 120.887 324.037 134.111 340.292 134.111C356.546 134.111 369.77 120.887 369.77 104.633C369.771 100.526 368.546 92.9547 357.954 74.6955ZM340.292 118.099C332.866 118.099 326.825 112.058 326.825 104.633C326.825 100.315 333.013 88.1279 340.292 76.3393C347.572 88.1284 353.759 100.315 353.759 104.633C353.76 112.058 347.718 118.099 340.292 118.099Z" fill="#F0943D"/>
<path d="M207.342 80.4292C223.597 80.4292 236.82 67.2056 236.82 50.951C236.82 46.8446 235.596 39.2734 225.003 21.0142C219.539 11.5959 214.155 3.78399 213.929 3.45576C212.435 1.29157 209.972 0 207.342 0C204.712 0 202.249 1.29157 200.755 3.45576C200.528 3.78399 195.145 11.5959 189.681 21.0142C179.089 39.2734 177.863 46.8441 177.863 50.951C177.864 67.2056 191.087 80.4292 207.342 80.4292ZM220.809 50.951C220.809 58.377 214.768 64.418 207.342 64.418C199.916 64.418 193.875 58.377 193.875 50.951C193.875 46.6322 200.063 34.445 207.344 22.6554C214.622 34.4391 220.809 46.6247 220.809 50.951Z" fill="#F0943D"/>
<path d="M281.66 80.4292C297.915 80.4292 311.139 67.2056 311.139 50.951C311.139 46.8446 309.914 39.2734 299.321 21.0142C293.858 11.5959 288.474 3.78399 288.247 3.45576C286.753 1.29157 284.291 0 281.66 0C279.03 0 276.568 1.29157 275.073 3.45576C274.847 3.78399 269.463 11.5959 263.999 21.0142C253.407 39.2734 252.182 46.8441 252.182 50.951C252.182 67.2056 265.406 80.4292 281.66 80.4292ZM295.128 50.951C295.128 58.377 289.086 64.418 281.66 64.418C274.234 64.418 268.193 58.377 268.193 50.951C268.193 46.6322 274.382 34.445 281.662 22.6554C288.941 34.4391 295.128 46.6247 295.128 50.951Z" fill="#F0943D"/>
</g>
<path d="M134.218 324.624C134.218 322.324 134.552 320.308 135.218 318.574C135.918 316.841 136.835 315.408 137.968 314.274C139.102 313.108 140.402 312.241 141.868 311.674C143.335 311.074 144.835 310.774 146.368 310.774C149.968 310.774 152.768 311.891 154.768 314.124C156.802 316.358 157.818 319.691 157.818 324.124C157.818 324.458 157.802 324.841 157.768 325.274C157.768 325.674 157.752 326.041 157.718 326.374H140.468C140.635 328.474 141.368 330.108 142.668 331.274C144.002 332.408 145.918 332.974 148.418 332.974C149.885 332.974 151.218 332.841 152.418 332.574C153.652 332.308 154.618 332.024 155.318 331.724L156.118 336.674C155.785 336.841 155.318 337.024 154.718 337.224C154.152 337.391 153.485 337.541 152.718 337.674C151.985 337.841 151.185 337.974 150.318 338.074C149.452 338.174 148.568 338.224 147.668 338.224C145.368 338.224 143.368 337.891 141.668 337.224C139.968 336.524 138.568 335.574 137.468 334.374C136.368 333.141 135.552 331.708 135.018 330.074C134.485 328.408 134.218 326.591 134.218 324.624ZM151.768 321.924C151.768 321.091 151.652 320.308 151.418 319.574C151.185 318.808 150.835 318.158 150.368 317.624C149.935 317.058 149.385 316.624 148.718 316.324C148.085 315.991 147.318 315.824 146.418 315.824C145.485 315.824 144.668 316.008 143.968 316.374C143.268 316.708 142.668 317.158 142.168 317.724C141.702 318.291 141.335 318.941 141.068 319.674C140.802 320.408 140.618 321.158 140.518 321.924H151.768ZM173.433 333.324C175.3 333.324 176.716 333.224 177.683 333.024V326.324C177.35 326.224 176.866 326.124 176.233 326.024C175.6 325.924 174.9 325.874 174.133 325.874C173.466 325.874 172.783 325.924 172.083 326.024C171.416 326.124 170.8 326.308 170.233 326.574C169.7 326.841 169.266 327.224 168.933 327.724C168.6 328.191 168.433 328.791 168.433 329.524C168.433 330.958 168.883 331.958 169.783 332.524C170.683 333.058 171.9 333.324 173.433 333.324ZM172.933 310.774C174.933 310.774 176.616 311.024 177.983 311.524C179.35 312.024 180.433 312.724 181.233 313.624C182.066 314.524 182.65 315.624 182.983 316.924C183.35 318.191 183.533 319.591 183.533 321.124V336.974C182.6 337.174 181.183 337.408 179.283 337.674C177.416 337.974 175.3 338.124 172.933 338.124C171.366 338.124 169.933 337.974 168.633 337.674C167.333 337.374 166.216 336.891 165.283 336.224C164.383 335.558 163.666 334.691 163.133 333.624C162.633 332.558 162.383 331.241 162.383 329.674C162.383 328.174 162.666 326.908 163.233 325.874C163.833 324.841 164.633 324.008 165.633 323.374C166.633 322.708 167.783 322.241 169.083 321.974C170.416 321.674 171.8 321.524 173.233 321.524C173.9 321.524 174.6 321.574 175.333 321.674C176.066 321.741 176.85 321.874 177.683 322.074V321.074C177.683 320.374 177.6 319.708 177.433 319.074C177.266 318.441 176.966 317.891 176.533 317.424C176.133 316.924 175.583 316.541 174.883 316.274C174.216 316.008 173.366 315.874 172.333 315.874C170.933 315.874 169.65 315.974 168.483 316.174C167.316 316.374 166.366 316.608 165.633 316.874L164.883 311.974C165.65 311.708 166.766 311.441 168.233 311.174C169.7 310.908 171.266 310.774 172.933 310.774ZM205.842 316.874C205.342 316.708 204.642 316.541 203.742 316.374C202.875 316.174 201.859 316.074 200.692 316.074C200.025 316.074 199.309 316.141 198.542 316.274C197.809 316.408 197.292 316.524 196.992 316.624V337.574H190.942V312.674C192.109 312.241 193.559 311.841 195.292 311.474C197.059 311.074 199.009 310.874 201.142 310.874C201.542 310.874 202.009 310.908 202.542 310.974C203.075 311.008 203.609 311.074 204.142 311.174C204.675 311.241 205.192 311.341 205.692 311.474C206.192 311.574 206.592 311.674 206.892 311.774L205.842 316.874ZM269.768 324.474C269.768 326.541 269.468 328.424 268.868 330.124C268.268 331.824 267.418 333.274 266.318 334.474C265.218 335.674 263.884 336.608 262.318 337.274C260.784 337.941 259.084 338.274 257.218 338.274C255.351 338.274 253.651 337.941 252.118 337.274C250.584 336.608 249.268 335.674 248.168 334.474C247.068 333.274 246.201 331.824 245.568 330.124C244.968 328.424 244.668 326.541 244.668 324.474C244.668 322.408 244.968 320.541 245.568 318.874C246.201 317.174 247.068 315.724 248.168 314.524C249.301 313.324 250.634 312.408 252.168 311.774C253.701 311.108 255.384 310.774 257.218 310.774C259.051 310.774 260.734 311.108 262.268 311.774C263.834 312.408 265.168 313.324 266.268 314.524C267.368 315.724 268.218 317.174 268.818 318.874C269.451 320.541 269.768 322.408 269.768 324.474ZM263.568 324.474C263.568 321.874 263.001 319.824 261.868 318.324C260.768 316.791 259.218 316.024 257.218 316.024C255.218 316.024 253.651 316.791 252.518 318.324C251.418 319.824 250.868 321.874 250.868 324.474C250.868 327.108 251.418 329.191 252.518 330.724C253.651 332.258 255.218 333.024 257.218 333.024C259.218 333.024 260.768 332.258 261.868 330.724C263.001 329.191 263.568 327.108 263.568 324.474ZM297.45 336.774C296.284 337.074 294.767 337.374 292.9 337.674C291.034 338.008 288.984 338.174 286.75 338.174C284.65 338.174 282.884 337.874 281.45 337.274C280.05 336.674 278.917 335.841 278.05 334.774C277.217 333.708 276.617 332.441 276.25 330.974C275.884 329.474 275.7 327.841 275.7 326.074V311.424H281.75V325.124C281.75 327.924 282.15 329.924 282.95 331.124C283.784 332.324 285.217 332.924 287.25 332.924C287.984 332.924 288.75 332.891 289.55 332.824C290.384 332.758 291 332.674 291.4 332.574V311.424H297.45V336.774ZM305.151 312.274C306.318 311.941 307.834 311.624 309.701 311.324C311.568 311.024 313.634 310.874 315.901 310.874C318.034 310.874 319.818 311.174 321.251 311.774C322.684 312.341 323.818 313.158 324.651 314.224C325.518 315.258 326.118 316.524 326.451 318.024C326.818 319.491 327.001 321.108 327.001 322.874V337.574H320.951V323.824C320.951 322.424 320.851 321.241 320.651 320.274C320.484 319.274 320.184 318.474 319.751 317.874C319.351 317.241 318.784 316.791 318.051 316.524C317.351 316.224 316.484 316.074 315.451 316.074C314.684 316.074 313.884 316.124 313.051 316.224C312.218 316.324 311.601 316.408 311.201 316.474V337.574H305.151V312.274ZM334.099 304.524L340.149 303.524V311.424H349.449V316.474H340.149V327.124C340.149 329.224 340.482 330.724 341.149 331.624C341.816 332.524 342.949 332.974 344.549 332.974C345.649 332.974 346.616 332.858 347.449 332.624C348.316 332.391 348.999 332.174 349.499 331.974L350.499 336.774C349.799 337.074 348.882 337.374 347.749 337.674C346.616 338.008 345.282 338.174 343.749 338.174C341.882 338.174 340.316 337.924 339.049 337.424C337.816 336.924 336.832 336.208 336.099 335.274C335.366 334.308 334.849 333.158 334.549 331.824C334.249 330.458 334.099 328.908 334.099 327.174V304.524ZM376.647 311.424C373.947 321.358 370.814 330.358 367.247 338.424C366.581 339.924 365.897 341.208 365.197 342.274C364.497 343.341 363.714 344.224 362.847 344.924C361.981 345.624 361.014 346.124 359.947 346.424C358.881 346.758 357.647 346.924 356.247 346.924C355.314 346.924 354.381 346.824 353.447 346.624C352.547 346.424 351.864 346.208 351.397 345.974L352.497 341.124C353.697 341.591 354.881 341.824 356.047 341.824C357.614 341.824 358.831 341.441 359.697 340.674C360.597 339.941 361.381 338.791 362.047 337.224C360.147 333.558 358.314 329.558 356.547 325.224C354.814 320.891 353.264 316.291 351.897 311.424H358.347C358.681 312.824 359.081 314.341 359.547 315.974C360.047 317.608 360.581 319.274 361.147 320.974C361.714 322.641 362.314 324.308 362.947 325.974C363.581 327.641 364.214 329.191 364.847 330.624C365.914 327.658 366.914 324.508 367.847 321.174C368.781 317.808 369.631 314.558 370.397 311.424H376.647Z" fill="#F0943D"/>
<path d="M223.773 337.974C221.94 337.974 220.09 337.908 218.223 337.774C216.356 337.674 214.723 337.441 213.323 337.074V303.424C214.056 303.291 214.84 303.174 215.673 303.074C216.506 302.941 217.356 302.841 218.223 302.774C219.09 302.708 219.94 302.658 220.773 302.624C221.64 302.591 222.456 302.574 223.223 302.574C225.323 302.574 227.273 302.741 229.073 303.074C230.873 303.374 232.423 303.891 233.723 304.624C235.056 305.358 236.09 306.324 236.823 307.524C237.556 308.724 237.923 310.208 237.923 311.974C237.923 313.608 237.523 315.008 236.723 316.174C235.956 317.341 234.873 318.274 233.473 318.974C235.573 319.674 237.123 320.708 238.123 322.074C239.123 323.441 239.623 325.174 239.623 327.274C239.623 330.841 238.323 333.524 235.723 335.324C233.123 337.091 229.14 337.974 223.773 337.974ZM219.523 321.974V332.524C220.223 332.591 220.973 332.641 221.773 332.674C222.573 332.708 223.306 332.724 223.973 332.724C225.273 332.724 226.473 332.641 227.573 332.474C228.706 332.308 229.673 332.024 230.473 331.624C231.306 331.191 231.956 330.624 232.423 329.924C232.923 329.224 233.173 328.324 233.173 327.224C233.173 325.258 232.456 323.891 231.023 323.124C229.59 322.358 227.606 321.974 225.073 321.974H219.523ZM219.523 317.024H223.973C226.373 317.024 228.256 316.691 229.623 316.024C230.99 315.324 231.673 314.091 231.673 312.324C231.673 310.658 230.956 309.474 229.523 308.774C228.123 308.074 226.29 307.724 224.023 307.724C223.056 307.724 222.19 307.741 221.423 307.774C220.69 307.808 220.056 307.858 219.523 307.924V317.024Z" fill="#3F7B70"/>
<path d="M117.308 338.4C115.475 338.4 113.625 338.333 111.758 338.2C109.891 338.1 108.258 337.867 106.858 337.5V303.85C107.591 303.717 108.375 303.6 109.208 303.5C110.041 303.367 110.891 303.267 111.758 303.2C112.625 303.133 113.475 303.083 114.308 303.05C115.175 303.017 115.991 303 116.758 303C118.858 303 120.808 303.167 122.608 303.5C124.408 303.8 125.958 304.317 127.258 305.05C128.591 305.783 129.625 306.75 130.358 307.95C131.091 309.15 131.458 310.633 131.458 312.4C131.458 314.033 131.058 315.433 130.258 316.6C129.491 317.767 128.408 318.7 127.008 319.4C129.108 320.1 130.658 321.133 131.658 322.5C132.658 323.867 133.158 325.6 133.158 327.7C133.158 331.267 131.858 333.95 129.258 335.75C126.658 337.517 122.675 338.4 117.308 338.4ZM113.058 322.4V332.95C113.758 333.017 114.508 333.067 115.308 333.1C116.108 333.133 116.841 333.15 117.508 333.15C118.808 333.15 120.008 333.067 121.108 332.9C122.241 332.733 123.208 332.45 124.008 332.05C124.841 331.617 125.491 331.05 125.958 330.35C126.458 329.65 126.708 328.75 126.708 327.65C126.708 325.683 125.991 324.317 124.558 323.55C123.125 322.783 121.141 322.4 118.608 322.4H113.058ZM113.058 317.45H117.508C119.908 317.45 121.791 317.117 123.158 316.45C124.525 315.75 125.208 314.517 125.208 312.75C125.208 311.083 124.491 309.9 123.058 309.2C121.658 308.5 119.825 308.15 117.558 308.15C116.591 308.15 115.725 308.167 114.958 308.2C114.225 308.233 113.591 308.283 113.058 308.35V317.45Z" fill="#3F7B70"/>
<defs>
<filter id="filter0_d" x="57.5312" y="135.662" width="344.355" height="131.186" filterUnits="userSpaceOnUse" color-interpolation-filters="sRGB">
<feFlood flood-opacity="0" result="BackgroundImageFix"/>
<feColorMatrix in="SourceAlpha" type="matrix" values="0 0 0 0 0 0 0 0 0 0 0 0 0 0 0 0 0 0 127 0" result="hardAlpha"/>
<feOffset dy="4"/>
<feGaussianBlur stdDeviation="2"/>
<feComposite in2="hardAlpha" operator="out"/>
<feColorMatrix type="matrix" values="0 0 0 0 0 0 0 0 0 0 0 0 0 0 0 0 0 0 0.25 0"/>
<feBlend mode="normal" in2="BackgroundImageFix" result="effect1_dropShadow"/>
<feBlend mode="normal" in="SourceGraphic" in2="effect1_dropShadow" result="shape"/>
</filter>
<clipPath id="clip0">
<rect width="273.258" height="273.258" fill="white" transform="translate(107.872)"/>
</clipPath>
</defs>
</svg>
